<svg xmlns="http://www.w3.org/2000/svg" width="536" height="103" fill="none">
    <path fill="#fff" fill-rule="evenodd" d="M3.354 10.428C1.654 10.052.368 8.55 0 7.047L21 7v.047c-.368 1.503-1.608 2.912-3.355 3.381h-5.238l-.276.094V24H8.87V10.522l-.276-.094H3.354Zm29.077-.01h12.517c1.762-.327 3.06-1.92 3.384-3.418H29c.37 1.499 1.669 3.044 3.43 3.419Zm93.185 0h-12.518c-1.715-.374-3.013-1.92-3.384-3.418H129c-.371 1.499-1.623 3.09-3.384 3.419ZM110.224 24V13.744h18.359V24h-3.245v-6.837h-11.869V24h-3.245Zm-9.875 0c1.623-.703 2.504-1.92 2.874-3.325H88.62V7.047h-3.292V24h15.021Zm-27.77-13.628h-11.59l.046 3.372h15.021V24h-19.24c.788-1.64 2.365-2.904 4.22-3.419H72.81V17.07H57.79V7.047h18.359c-.371 1.452-1.808 2.81-3.57 3.325Zm-27.63 6.744H32.43c-1.762-.375-3.06-1.92-3.431-3.419h19.332c-.324 1.499-1.622 3.09-3.384 3.419ZM32.43 24h12.517c1.762-.328 3.06-1.92 3.384-3.419H29c.37 1.499 1.669 3.091 3.43 3.419ZM206 15h-15V0h15v15Zm130-.939V11.54h-3.144V7.62l-.105.033-2.953.9-.058.017v2.97h-4.66V9.885c0-.77.173-1.36.514-1.753.338-.388.822-.586 1.44-.586.444 0 .903.105 1.366.31l.116.052V5.252l-.055-.02c-.431-.154-1.018-.232-1.746-.232-.916 0-1.75.199-2.476.593a4.22 4.22 0 0 0-1.699 1.673c-.4.715-.602 1.54-.602 2.455v1.819h-2.189v2.521h2.189v10.622h3.142V14.06h4.66v6.75c0 2.78 1.316 4.189 3.913 4.189.426 0 .875-.05 1.334-.148.467-.1.785-.2.972-.306l.041-.025v-2.544l-.128.084c-.17.113-.383.205-.632.274a2.41 2.41 0 0 1-.62.105c-.609 0-1.059-.163-1.338-.485-.282-.325-.425-.894-.425-1.689v-6.205H336Zm-23.268 8.38c-1.14 0-2.04-.377-2.673-1.119-.638-.746-.961-1.809-.961-3.16 0-1.393.323-2.484.961-3.243.634-.754 1.525-1.136 2.647-1.136 1.09 0 1.957.365 2.579 1.086.624.725.941 1.807.941 3.217 0 1.428-.298 2.524-.886 3.257-.583.728-1.461 1.098-2.608 1.098Zm-4.996-9.33c1.232-1.253 2.96-1.888 5.136-1.888 2.049 0 3.675.608 4.831 1.806 1.155 1.198 1.741 2.865 1.741 4.955 0 2.116-.624 3.833-1.856 5.102-1.231 1.27-2.925 1.913-5.034 1.913-2.024 0-3.66-.61-4.863-1.817-1.202-1.206-1.811-2.86-1.811-4.919 0-2.166.624-3.9 1.856-5.152Zm-6.922-1.888c-1.48 0-2.705.377-3.64 1.12-.941.749-1.418 1.73-1.418 2.917 0 .617.103 1.165.306 1.63.204.466.519.877.939 1.221.416.342 1.058.7 1.909 1.064.716.294 1.25.542 1.589.738.331.191.566.384.699.571.129.184.195.435.195.745 0 .883-.664 1.313-2.03 1.313-.507 0-1.085-.105-1.718-.313a6.467 6.467 0 0 1-1.759-.889l-.13-.093v3.014l.047.022c.445.204 1.006.377 1.666.512.66.136 1.259.205 1.779.205 1.606 0 2.9-.379 3.843-1.127.95-.753 1.432-1.757 1.432-2.985 0-.886-.26-1.646-.77-2.258-.508-.608-1.388-1.166-2.616-1.66-.978-.39-1.605-.715-1.863-.964-.25-.24-.376-.581-.376-1.013 0-.382.156-.688.477-.936.323-.25.773-.376 1.337-.376a5.5 5.5 0 0 1 1.592.244c.532.161 1 .378 1.39.642l.128.087v-2.858l-.049-.021c-.36-.154-.835-.285-1.412-.392a8.64 8.64 0 0 0-1.547-.16Zm-15.923 10.1c.634.741 1.533 1.118 2.673 1.118 1.148 0 2.025-.37 2.609-1.098.587-.733.885-1.83.885-3.257 0-1.41-.316-2.492-.941-3.217-.621-.72-1.489-1.086-2.578-1.086-1.123 0-2.013.382-2.647 1.136-.638.759-.961 1.85-.961 3.243 0 1.352.323 2.414.96 3.16Zm2.814-10.1c-2.177 0-3.905.635-5.137 1.888-1.231 1.252-1.856 2.986-1.856 5.152 0 2.059.61 3.713 1.812 4.92 1.202 1.205 2.838 1.816 4.862 1.816 2.109 0 3.803-.643 5.035-1.913 1.231-1.269 1.855-2.986 1.855-5.102 0-2.09-.585-3.757-1.741-4.955-1.156-1.198-2.781-1.806-4.83-1.806Zm-11.762.317v2.276h.033c.29-.739.669-1.331 1.194-1.763a3.185 3.185 0 0 1 2.075-.741c.518 0 .927.062 1.216.184l.05.021v3.117l-.13-.094c-.144-.103-.388-.201-.724-.291a3.658 3.658 0 0 0-.933-.137c-.825 0-1.501.355-2.008 1.056-.513.71-.773 1.648-.773 2.791v6.724h-3.104V11.54h3.104Zm-8.663-.317c-1.424 0-2.694.304-3.774.904a6.101 6.101 0 0 0-2.49 2.55c-.567 1.088-.855 2.359-.855 3.777 0 1.241.28 2.381.831 3.385a5.83 5.83 0 0 0 2.323 2.34c.988.545 2.129.82 3.393.82 1.475 0 2.735-.293 3.744-.872l.041-.023V21.27l-.13.095a5.853 5.853 0 0 1-1.519.788c-.548.19-1.048.287-1.487.287-1.218 0-2.196-.38-2.905-1.128-.712-.75-1.072-1.802-1.072-3.126 0-1.332.376-2.411 1.117-3.208.739-.794 1.719-1.196 2.911-1.196 1.02 0 2.015.344 2.955 1.023l.13.094v-2.984l-.042-.024c-.354-.197-.836-.36-1.436-.483a8.6 8.6 0 0 0-1.735-.186Zm-12.36.317h3.104v13.143h-3.104V11.54Zm1.584-5.599c-.511 0-.957.173-1.323.517a1.703 1.703 0 0 0-.554 1.289c0 .503.184.929.548 1.264.362.334.809.503 1.329.503.519 0 .968-.17 1.334-.503.368-.335.555-.76.555-1.264 0-.494-.182-.923-.54-1.276-.358-.352-.812-.53-1.349-.53Zm-7.745 18.742V10.57h-.102l-5.621 14.113h-2.247l-5.71-14.114h-.102v14.113H232V6.343h4.563l5.407 13.622 5.573-13.622h4.384v18.34h-3.168ZM207 15h15V0h-15v15Zm-1 16h-15V16h15v15Zm1 0h15V16h-15v15ZM435.457 2h-16.606l-.754 2.021c6.585.315 11.818 5.303 11.818 11.409 0 5.676-4.522 10.385-10.447 11.274l-.711 2.169h16.7a3.49 3.49 0 0 0 2.498-1.045 3.62 3.62 0 0 0 1.036-2.537V5.57c0-1.99-1.583-3.57-3.534-3.57Zm-30.403 13.43c0 4.998 3.517 9.408 8.409 11.01l-.853 2.433h-13.085c-1.947 0-3.525-1.625-3.525-3.61V5.598c-.001-1.983 1.577-3.593 3.525-3.596h13.508l-.847 2.4c-4.077 2.204-7.132 6.637-7.132 11.03Zm122.499 2.961h-7.715v10.59h7.668c2.777 0 2.964-2.731 2.964-4.217V21.65c0-1.87-.941-3.259-2.917-3.259Zm.518 6.661v-3.02c.048-.669-.422-1.436-1.129-1.436h-4.706v6.18h4.518c.846 0 1.317-.814 1.317-1.724Zm-11.546-.187c.567-.482.944-1.202.944-3.126 0-2.164-1.463-3.366-3.161-3.366h-6.938v10.626h2.36v-3.126h4.057c.945 0 1.417.77 1.417 1.203v1.922h2.265v-2.211c0-.625-.189-1.538-.944-1.922Zm-6.796-1.202h4.341c.898 0 1.133-1.107 1.133-1.635 0-.53-.235-1.443-1.416-1.443h-4.058v3.078Zm-8.917-5.27h-3.104l-4.186 9.1v1.486h1.882l.846-1.916h6.011l.857 1.916h2.447l-4.753-10.585Zm-1.552 1.965-2.022 4.502h4.036l-2.014-4.502Zm-16.65 8.632V18.383h2.405v3.984h1.036l4.099-3.984h3.205l-5.043 4.992 4.193 4.223v1.392h-1.79l-4.475-4.416h-1.225v4.416h-2.405Zm-12.626-2.505v-5.598c0-1.195 1.268-2.487 2.396-2.487h5.781c1.504.047 2.395 1.627 2.395 2.536v.908h-2.395c-.049-.479-.471-1.195-.847-1.195h-4.136c-.939 0-.797.956-.797.956v4.21c0 .766.469.957.751.957h4.088c.893 0 .988-.765.988-1.244h2.349v.957c0 1.58-1.08 2.488-2.395 2.488h-5.734c-1.786 0-2.444-1.388-2.444-2.488Zm-5.821-8.112h-3.114L456.188 29h2.548l.85-1.923h6.03l.86 1.923h2.454l-4.767-10.627Zm-1.558 1.97-2.028 4.522h4.011l-1.983-4.521Zm-9.112-1.954h-7.579v10.595h2.401v-2.973h5.177c1.413 0 3.013-.814 3.013-3.787.001-3.02-1.741-3.835-3.012-3.835Zm-5.178 5.418h4.613c1.036 0 1.036-1.103 1.036-1.582 0-.48 0-1.63-1.177-1.63h-4.472v3.212Zm-2.401-21.633v10.595h2.401v-4.22h6.26v4.22h2.401V2.174h-2.401v4.17h-6.26v-4.17h-2.401Zm15.179-.007h8.011v2.21h-7.257v1.968h6.032v2.208h-6.032v2.015h7.257v2.208h-8.152c-.943 0-1.508-.768-1.508-1.392V3.751c0-.96.565-1.584 1.649-1.584Zm27.353.01v9.007c0 .815.613 1.581 1.695 1.581h7.058v-2.204h-6.352V2.178h-2.401Zm27.336 2.198v8.401h-2.403V4.375h-3.465v-2.21h9.38v2.21h-3.512Zm11.115 8.408V4.37h3.515V2.158h-9.389V4.37h3.468v8.413h2.406ZM500.148 2.171h8.005v2.206h-7.252v1.967h6.028V8.55h-6.028v2.015h7.252v2.206h-8.147c-.942 0-1.507-.767-1.507-1.391V3.755c0-.96.565-1.584 1.649-1.584Zm-18.26 10.616c-.709 0-1.392-1.082-1.535-1.611l-1.769-5.556-2.314 7.168h-1.463c-.709 0-1.323-1.106-1.465-1.635l-2.879-8.997h2.407l2.22 7.264 2.361-7.216h2.265l2.36 7.216 2.219-7.264h2.409l-3.4 10.632h-1.416v-.001Zm51.776-10.693a2.24 2.24 0 0 1 1.653.692c.454.462.683 1.021.683 1.677a2.332 2.332 0 0 1-.683 1.686 2.228 2.228 0 0 1-1.653.699 2.214 2.214 0 0 1-1.65-.699 2.329 2.329 0 0 1-.676-1.686 2.314 2.314 0 0 1 .682-1.677 2.223 2.223 0 0 1 1.644-.692Zm1.421 3.825a1.91 1.91 0 0 1-1.421.602 1.903 1.903 0 0 1-1.42-.602 2.017 2.017 0 0 1-.582-1.457c0-.565.195-1.047.585-1.446.391-.401.863-.602 1.418-.602.554 0 1.029.2 1.42.602.39.399.585.881.585 1.446 0 .57-.195 1.055-.585 1.457ZM414.326 2 408 20v.002h2.672l3.093-8.664h.843c.561 0 .561.416.468.88l-2.765 7.784h2.765s2.39-6.579 2.812-7.97c.421-1.39-.422-2.085-2.062-2.085h-1.594L417.044 2h-2.718Zm6.133 7.902h4.373c1.316 0 2.681.698 1.976 2.606l-2.023 5.676c-.375 1.07-.705 1.815-2.68 1.815h-2.473L416.838 28h-2.68l6.301-18.098Zm3.621 2.094s-1.975 5.536-2.022 5.816c-.047.28-.283.79-.753.79h-1.186l2.55-7.304h1.176c.423 0 .376.326.235.698ZM235.303 86.08h-4.2l1.406-1.38H240l-1.103 1.09c-.205.186-.342.398-.342.706v6.028c-3.496.962-6.522 1.476-9.931 1.476C221.594 94 216 89.424 216 81.83c0-5.337 4.195-11.83 13.372-11.83 4.181 0 7.106 1.284 9.126 2.636l-3.194 3.158v-1.903c-1.703-1.527-3.607-2.623-6.878-2.623-5.171 0-8.877 3.966-8.877 9.621 0 5.766 4.098 11.67 11.069 11.67 1.72 0 3.375-.23 4.685-.645v-5.835Zm14.11-8.08c-5.195 0-8.413 3.69-8.413 7.606 0 3.38 2.593 7.394 7.846 7.394C253.9 93 257 89.303 257 85.318c0-3.712-3.03-7.317-7.587-7.317V78Zm-.862 1.076c3.662 0 5.293 4.638 5.293 7.946 0 4.92-3.797 5.017-4.25 5.017-1.738 0-2.952-1.02-3.861-2.36-.8-1.234-1.582-3.526-1.582-5.766 0-2.23.751-3.32 1.933-4.122a4.629 4.629 0 0 1 2.466-.715h.001ZM283.416 78c-4.384 0-6.756 2.895-6.756 6.128 0 2.461 1.691 5.238 5.177 5.238h.882s-.24.609-.241 1.197c0 .867.298 1.354.933 2.104-6 .381-8.411 2.906-8.411 5.619 0 2.376 2.181 4.714 6.764 4.714 5.426 0 8.236-3.142 8.236-6.226 0-2.174-1.038-3.366-3.668-5.421-.773-.627-.923-1.027-.923-1.496 0-.66.372-1.1.519-1.275l.008-.01a5.77 5.77 0 0 1 .6-.534h.001c.099-.082.185-.151.24-.203.884-.78 2.131-1.936 2.131-4.242 0-1.582-.63-2.943-2.068-4.217h1.755L289.913 78h-6.497Zm-1.209 1.029c.795 0 1.459.293 2.16.902.778.732 2.021 2.698 2.021 5.13 0 2.626-1.955 3.344-3.013 3.344a2.916 2.916 0 0 1-1.664-.526c-1.167-.79-2.326-2.891-2.326-5.392 0-2.257 1.289-3.458 2.822-3.458Zm2.31 14.663s-.24-.028-.574-.028c-4.502.065-6.143 1.836-6.143 3.894 0 2.485 2.394 4.006 5.527 4.006 2.853 0 4.615-1.554 4.615-3.535 0-1.442-.8-2.25-2.084-3.31-.551-.439-1.341-1.027-1.341-1.027ZM297.03 93h-6.367l1.167-1.154a.878.878 0 0 0 .28-.669V71.403H290L291.413 70h5.43l-1.149 1.14a.882.882 0 0 0-.304.69v19.09c0 .41.292.831.784.89l1.826.227-.97.963Zm.97-7.798c0-4.626 3.822-7.202 7.421-7.202h.001c3.817 0 5.478 1.987 6.067 3.96l-10.199 3.873c.974 3.597 3.758 5.554 6.645 5.554 1.519 0 2.663-.436 4.065-1.1-.743.933-1.76 1.676-2.818 2.133-.986.426-2.038.58-3.316.58-5.124 0-7.866-3.978-7.866-7.798Zm10.081-3.484c0-1.168-1.396-2.66-3.327-2.66-1.276 0-3.863.899-3.863 4.26 0 .802.17 1.544.17 1.544l6.269-2.382c.499-.185.751-.384.751-.762ZM267.413 78c-5.195 0-8.413 3.69-8.413 7.606 0 3.38 2.593 7.394 7.846 7.394C271.9 93 275 89.303 275 85.318c0-3.712-3.03-7.317-7.587-7.317V78Zm-.862 1.076c3.662 0 5.293 4.638 5.293 7.946 0 4.92-3.797 5.017-4.25 5.017-1.738 0-2.952-1.02-3.861-2.36-.8-1.234-1.582-3.526-1.582-5.766 0-2.23.751-3.32 1.933-4.122a4.629 4.629 0 0 1 2.466-.715h.001ZM56.554 89.06h8.656l-4.577-7.351-8.4 13.29h-3.824l10.218-15.964A2.416 2.416 0 0 1 60.633 78c.794 0 1.534.376 1.965 1.008L72.856 95h-3.823l-1.803-2.97h-8.764l-1.912-2.97Zm39.713 2.97V78.16h-3.244v15.226c0 .417.162.82.471 1.129.31.309.727.484 1.185.484h14.795l1.912-2.97H96.267Zm-47.966-8.17c0 3.144-2.557 5.683-5.708 5.683v.001h-1.48L47.627 95h-4.712l-9.684-8.426 9.146.013a2.72 2.72 0 0 0 2.72-2.727 2.721 2.721 0 0 0-2.72-2.729H31.643V95H28.4V78.16h14.193c3.15 0 5.708 2.554 5.708 5.7ZM8.436 95C3.779 95 0 91.237 0 86.587s3.779-8.426 8.436-8.426h9.804c4.658 0 8.434 3.776 8.434 8.426S22.898 95 18.24 95H8.436Zm15.047-8.413c0 3.01-2.444 5.443-5.46 5.443H8.651c-3.015 0-5.46-2.433-5.46-5.443a5.46 5.46 0 0 1 5.46-5.456h9.37a5.46 5.46 0 0 1 5.46 5.456ZM79.627 95c-4.658 0-8.44-3.763-8.44-8.413s3.782-8.426 8.44-8.426h11.645l-1.898 2.97h-9.531c-3.016 0-5.466 2.446-5.466 5.456 0 3.01 2.45 5.443 5.466 5.443h11.698L89.63 95H79.628Zm34.423-6.935a5.45 5.45 0 0 0 5.251 3.965H131L129.088 95h-10.002c-4.658 0-8.441-3.763-8.441-8.413s3.783-8.426 8.441-8.426h11.658l-1.924 2.97h-9.518a5.466 5.466 0 0 0-5.251 3.965h15.778l-1.912 2.97h-13.866ZM413.541 74v3.501l.689-.043c8.856-.304 14.641 7.321 14.641 7.321s-6.632 8.131-13.536 8.131c-.603 0-1.191-.057-1.78-.159v2.17c.488.058.99.102 1.478.102 6.431 0 11.082-3.313 15.589-7.22.337.274 1.144.722 1.987 1.19 1.025.569 2.102 1.166 2.448 1.516-4.277 3.617-14.253 6.525-19.909 6.525-.545 0-1.062-.029-1.579-.087V100H438V74h-24.459Zm0 7.755v-2.343h.014v-.002c.225-.014.45-.028.675-.028 6.373-.202 10.55 5.527 10.55 5.527s-4.507 6.309-9.345 6.309a5.883 5.883 0 0 1-1.88-.304v-7.119c2.338.286 2.92 1.278 4.214 3.482l.25.425 3.316-2.807s-2.426-3.198-6.502-3.198a9.642 9.642 0 0 0-1.292.058Zm0 0v2.026h-.015c-2.483-.304-4.435 2.04-4.435 2.04s1.105 3.95 4.45 5.093v1.852c-5.943-1.071-7.594-7.307-7.594-7.307s2.857-3.183 7.594-3.704Zm.014-2.345-.014.001v.001c-7.039.556-10.551 5.787-10.551 5.787s2.685 8.739 10.551 9.722v2.026C402.818 95.934 399 84.793 399 84.793s6.746-6.655 14.555-7.292v1.91ZM445 79v16.986h4.852V82.797l3.783.014c1.242 0 2.108.302 2.7.935.766.806 1.069 2.114 1.069 4.488v7.752h4.707v-9.378c0-6.702-4.288-7.608-8.476-7.608H445Zm37.832.029V96h4.809V79.029h-4.809ZM490.587 96V79.029h6.743c3.841 0 6.411.46 8.173 2.833.996 1.323 1.56 3.452 1.56 5.84 0 2.603-.665 4.99-1.704 6.069C503.9 95.31 502.543 96 498.384 96h-7.797Zm4.765-13.29h2.065c3.003 0 4.938 1.338 4.938 4.819 0 3.48-1.935 4.832-4.938 4.832h-2.065v-9.65Zm-23.465 9.766 4.014-13.447h4.91L475.266 96h-6.931l-5.487-16.971h5.198l3.841 13.447ZM509.315 96h4.809V79.029h-4.809V96Zm6.772-.014 6.715-16.957h6.426L536 95.97h-5.155l-1.011-2.991h-7.942l-1.068 3.006h-4.737Zm9.834-13.865 2.917 7.94h-5.921l3.004-7.94Z" clip-rule="evenodd" />
</svg>