<svg xmlns="http://www.w3.org/2000/svg" width="541" height="104" fill="none">
    <path fill="#36536B" fill-rule="evenodd"
        d="M3.386 10.428C1.67 10.052.37 8.55 0 7.047L21.196 7v.047c-.371 1.503-1.623 2.912-3.386 3.381h-5.287l-.278.094V24H8.95V10.522l-.278-.094H3.386Zm29.347-.01h12.634c1.779-.327 3.089-1.92 3.416-3.418H29.27c.375 1.499 1.685 3.044 3.463 3.419Zm94.054 0h-12.634c-1.731-.374-3.041-1.92-3.416-3.418h19.466c-.374 1.499-1.637 3.09-3.416 3.419ZM111.252 24V13.744h18.53V24h-3.275v-6.837h-11.979V24h-3.276Zm-9.967 0c1.638-.703 2.527-1.92 2.901-3.325h-14.74V7.047h-3.322V24h15.161ZM73.256 10.372H61.558l.047 3.372h15.16V24H57.347c.796-1.64 2.387-2.904 4.259-3.419H73.49V17.07H58.33V7.047h18.53c-.375 1.452-1.826 2.81-3.604 3.325Zm-27.889 6.744H32.733c-1.778-.375-3.088-1.92-3.462-3.419h19.512c-.327 1.499-1.638 3.09-3.416 3.419ZM32.733 24h12.634c1.779-.328 3.089-1.92 3.416-3.419H29.27c.375 1.499 1.685 3.091 3.463 3.419ZM207.921 15h-15.14V0h15.14v15Zm131.213-.939V11.54h-3.173V7.62l-.107.033-2.98.9-.059.017v2.97h-4.703V9.885c0-.77.174-1.36.518-1.753.342-.388.831-.586 1.454-.586.448 0 .912.105 1.379.31l.117.052V5.252l-.055-.02c-.436-.154-1.028-.232-1.762-.232-.926 0-1.767.199-2.5.593a4.242 4.242 0 0 0-1.715 1.673c-.403.715-.608 1.54-.608 2.455v1.819h-2.209v2.521h2.209v10.622h3.172V14.06h4.703v6.75c0 2.78 1.329 4.189 3.95 4.189.43 0 .884-.05 1.346-.148.471-.1.792-.2.981-.306l.042-.025v-2.544l-.129.084a2.239 2.239 0 0 1-.638.274 2.45 2.45 0 0 1-.626.105c-.614 0-1.068-.163-1.35-.485-.285-.325-.43-.894-.43-1.689v-6.205h3.173Zm-23.485 8.38c-1.151 0-2.059-.377-2.698-1.119-.644-.746-.97-1.809-.97-3.16 0-1.393.326-2.484.97-3.243.64-.754 1.539-1.136 2.672-1.136 1.1 0 1.975.365 2.602 1.086.63.725.95 1.807.95 3.217 0 1.428-.301 2.524-.894 3.257-.589.728-1.474 1.098-2.632 1.098Zm-5.043-9.33c1.243-1.253 2.988-1.888 5.184-1.888 2.069 0 3.71.608 4.876 1.806 1.166 1.198 1.757 2.865 1.757 4.955 0 2.116-.63 3.833-1.873 5.102-1.243 1.27-2.952 1.913-5.081 1.913-2.043 0-3.694-.61-4.908-1.817-1.213-1.206-1.828-2.86-1.828-4.919 0-2.166.63-3.9 1.873-5.152Zm-6.987-1.888c-1.494 0-2.729.377-3.673 1.12-.95.749-1.432 1.73-1.432 2.917 0 .617.104 1.165.309 1.63.206.466.524.877.948 1.221.42.342 1.068.7 1.927 1.064.723.294 1.261.542 1.604.738.334.191.571.384.705.571.131.184.197.435.197.745 0 .883-.67 1.313-2.049 1.313-.511 0-1.095-.105-1.734-.313a6.546 6.546 0 0 1-1.775-.889l-.132-.093v3.014l.048.022c.449.204 1.015.377 1.682.512.665.136 1.27.205 1.795.205 1.621 0 2.927-.379 3.879-1.127.959-.753 1.445-1.757 1.445-2.985 0-.886-.262-1.646-.777-2.258-.512-.608-1.401-1.166-2.64-1.66-.988-.39-1.62-.715-1.881-.964-.252-.24-.379-.581-.379-1.013 0-.382.157-.688.481-.936.326-.25.78-.376 1.35-.376.528 0 1.069.083 1.606.244.538.161 1.01.378 1.403.642l.13.087v-2.858l-.05-.021c-.363-.154-.842-.285-1.424-.392a8.824 8.824 0 0 0-1.563-.16Zm-16.071 10.1c.64.741 1.548 1.118 2.699 1.118 1.158 0 2.043-.37 2.632-1.098.593-.733.894-1.83.894-3.257 0-1.41-.32-2.492-.95-3.217-.627-.72-1.503-1.086-2.602-1.086-1.134 0-2.032.382-2.672 1.136-.644.759-.97 1.85-.97 3.243 0 1.352.326 2.414.969 3.16Zm2.84-10.1c-2.197 0-3.941.635-5.184 1.888-1.243 1.252-1.874 2.986-1.874 5.152 0 2.059.616 3.713 1.829 4.92 1.214 1.205 2.865 1.816 4.908 1.816 2.128 0 3.838-.643 5.081-1.913 1.243-1.269 1.873-2.986 1.873-5.102 0-2.09-.591-3.757-1.757-4.955-1.167-1.198-2.808-1.806-4.876-1.806Zm-11.872.317v2.276h.033c.293-.739.676-1.331 1.206-1.763a3.236 3.236 0 0 1 2.095-.741c.522 0 .935.062 1.227.184l.05.021v3.117l-.131-.094c-.145-.103-.391-.201-.731-.291a3.723 3.723 0 0 0-.942-.137c-.832 0-1.514.355-2.026 1.056-.518.71-.781 1.648-.781 2.791v6.724h-3.133V11.54h3.133Zm-8.743-.317c-1.437 0-2.719.304-3.81.904a6.13 6.13 0 0 0-2.512 2.55c-.573 1.088-.863 2.359-.863 3.777 0 1.241.282 2.381.839 3.385a5.85 5.85 0 0 0 2.344 2.34c.997.545 2.149.82 3.425.82 1.489 0 2.76-.293 3.779-.872l.041-.023V21.27l-.132.095a5.902 5.902 0 0 1-1.532.788c-.554.19-1.059.287-1.501.287-1.23 0-2.217-.38-2.933-1.128-.718-.75-1.082-1.802-1.082-3.126 0-1.332.38-2.411 1.128-3.208.746-.794 1.734-1.196 2.938-1.196 1.03 0 2.033.344 2.983 1.023l.131.094v-2.984l-.042-.024c-.358-.197-.845-.36-1.45-.483a8.761 8.761 0 0 0-1.751-.186Zm-12.476.317h3.133v13.143h-3.133V11.54Zm1.599-5.599c-.516 0-.965.173-1.335.517a1.693 1.693 0 0 0-.559 1.289c0 .503.186.929.553 1.264.365.334.817.503 1.341.503s.977-.17 1.347-.503c.371-.335.56-.76.56-1.264 0-.494-.183-.923-.545-1.276-.361-.352-.82-.53-1.362-.53Zm-7.817 18.742V10.57h-.103l-5.674 14.113h-2.267l-5.764-14.114h-.103v14.113h-3.004V6.343h4.605l5.458 13.622 5.625-13.622h4.425v18.34h-3.198ZM208.931 15h15.139V0h-15.139v15Zm-1.01 16h-15.14V16h15.14v15Zm1.01 0h15.139V16h-15.139v15ZM439.52 2h-16.761l-.761 2.021c6.645.315 11.928 5.303 11.928 11.409 0 5.676-4.564 10.385-10.545 11.274l-.717 2.169h16.856a3.536 3.536 0 0 0 2.52-1.045 3.599 3.599 0 0 0 1.046-2.537V5.57c0-1.99-1.597-3.57-3.566-3.57Zm-30.687 13.43c0 4.998 3.55 9.408 8.488 11.01l-.862 2.433h-13.206c-1.966 0-3.559-1.625-3.559-3.61V5.598c-.001-1.983 1.592-3.593 3.559-3.596h13.633l-.855 2.4c-4.115 2.204-7.198 6.637-7.198 11.03Zm123.642 2.961h-7.788v10.59h7.74c2.803 0 2.992-2.731 2.992-4.217V21.65c0-1.87-.95-3.259-2.944-3.259Zm.522 6.661v-3.02c.049-.669-.426-1.436-1.139-1.436h-4.75v6.18h4.56c.854 0 1.329-.814 1.329-1.724Zm-11.654-.187c.573-.482.954-1.202.954-3.126 0-2.164-1.477-3.366-3.192-3.366h-7.002v10.626h2.382v-3.126h4.096c.953 0 1.429.77 1.429 1.203v1.922h2.287v-2.211c0-.625-.192-1.538-.954-1.922Zm-6.858-1.202h4.381c.906 0 1.144-1.107 1.144-1.635 0-.53-.238-1.443-1.43-1.443h-4.095v3.078Zm-9.001-5.27h-3.133l-4.225 9.1v1.486h1.899l.854-1.916h6.068l.864 1.916h2.47l-4.797-10.585Zm-1.566 1.965-2.042 4.502h4.074l-2.032-4.502Zm-16.805 8.632V18.383h2.426v3.984h1.046l4.138-3.984h3.234l-5.09 4.992 4.233 4.223v1.392h-1.808l-4.516-4.416h-1.237v4.416h-2.426Zm-12.745-2.505v-5.598c0-1.195 1.281-2.487 2.419-2.487h5.835c1.518.047 2.417 1.627 2.417 2.536v.908h-2.417c-.05-.479-.476-1.195-.855-1.195h-4.174c-.948 0-.805.956-.805.956v4.21c0 .766.473.957.758.957h4.126c.901 0 .997-.765.997-1.244h2.371v.957c0 1.58-1.09 2.488-2.418 2.488h-5.787c-1.803 0-2.467-1.388-2.467-2.488Zm-5.874-8.112h-3.144L460.444 29h2.572l.858-1.923h6.086l.868 1.923h2.477l-4.811-10.627Zm-1.573 1.97-2.047 4.522h4.048l-2.001-4.521Zm-9.197-1.954h-7.65v10.595h2.423v-2.973h5.226c1.425 0 3.041-.814 3.041-3.787.001-3.02-1.758-3.835-3.04-3.835Zm-5.227 5.418h4.657c1.045 0 1.045-1.103 1.045-1.582 0-.48 0-1.63-1.188-1.63h-4.514v3.212Zm-2.423-21.633v10.595h2.423v-4.22h6.319v4.22h2.423V2.174h-2.423v4.17h-6.319v-4.17h-2.423Zm15.321-.007h8.085v2.21h-7.325v1.968h6.089v2.208h-6.089v2.015h7.325v2.208h-8.228c-.952 0-1.522-.768-1.522-1.392V3.751c0-.96.57-1.584 1.665-1.584Zm27.608.01v9.007c0 .815.618 1.581 1.71 1.581h7.124v-2.204h-6.411V2.178h-2.423Zm27.59 2.198v8.401h-2.425V4.375h-3.497v-2.21h9.468v2.21h-3.546Zm11.22 8.408V4.37h3.547V2.158h-9.477V4.37h3.501v8.413h2.429ZM504.814 2.171h8.08v2.206h-7.32v1.967h6.084V8.55h-6.084v2.015h7.32v2.206h-8.223c-.952 0-1.521-.767-1.521-1.391V3.755c0-.96.569-1.584 1.664-1.584Zm-18.43 10.616c-.716 0-1.406-1.082-1.549-1.611l-1.787-5.556-2.335 7.168h-1.477c-.715 0-1.335-1.106-1.478-1.635l-2.906-8.997h2.43l2.241 7.264 2.382-7.216h2.286l2.382 7.216 2.24-7.264h2.431l-3.431 10.632h-1.429v-.001Zm52.259-10.693a2.27 2.27 0 0 1 1.668.692c.459.462.689 1.021.689 1.677a2.314 2.314 0 0 1-.689 1.686 2.26 2.26 0 0 1-1.668.699 2.244 2.244 0 0 1-1.666-.699 2.318 2.318 0 0 1-.682-1.686 2.3 2.3 0 0 1 .688-1.677 2.257 2.257 0 0 1 1.66-.692Zm1.433 3.825c-.374.393-.893.61-1.433.602-.54.01-1.06-.209-1.434-.602a2.006 2.006 0 0 1-.587-1.457c0-.565.197-1.047.59-1.446.395-.401.872-.602 1.432-.602a1.94 1.94 0 0 1 1.433.602c.394.399.59.881.59 1.446a2 2 0 0 1-.591 1.457ZM418.191 2l-6.385 18v.002h2.697l3.122-8.664h.851c.567 0 .567.416.473.88l-2.791 7.784h2.791s2.412-6.579 2.838-7.97c.425-1.39-.426-2.085-2.082-2.085h-1.608L420.935 2h-2.744Zm6.191 7.902h4.414c1.328 0 2.705.698 1.993 2.606l-2.041 5.676c-.379 1.07-.712 1.815-2.705 1.815h-2.496L420.727 28h-2.706l6.361-18.098Zm3.654 2.094s-1.993 5.536-2.041 5.816c-.047.28-.285.79-.759.79h-1.198l2.574-7.304h1.187c.427 0 .379.326.237.698ZM237.498 87.08h-4.24l1.419-1.38h7.562l-1.114 1.09c-.207.186-.345.398-.345.706v6.028c-3.528.962-6.583 1.476-10.024 1.476-7.095 0-12.741-4.576-12.741-12.17 0-5.337 4.234-11.83 13.497-11.83 4.219 0 7.171 1.284 9.21 2.636l-3.223 3.158v-1.903c-1.719-1.527-3.641-2.623-6.943-2.623-5.218 0-8.959 3.966-8.959 9.621 0 5.766 4.136 11.67 11.172 11.67 1.736 0 3.406-.23 4.729-.645v-5.835ZM251.739 79c-5.243 0-8.491 3.69-8.491 7.606 0 3.38 2.617 7.394 7.919 7.394 5.101 0 8.23-3.697 8.23-7.682 0-3.712-3.058-7.317-7.658-7.317V79Zm-.87 1.076c3.697 0 5.343 4.638 5.343 7.946 0 4.92-3.832 5.017-4.29 5.017-1.754 0-2.98-1.02-3.897-2.36-.808-1.234-1.597-3.526-1.597-5.766 0-2.23.758-3.32 1.951-4.122.976-.6 1.89-.715 2.489-.715h.001ZM286.059 79c-4.424 0-6.818 2.895-6.818 6.128 0 2.461 1.706 5.238 5.225 5.238h.89s-.242.609-.243 1.197c0 .867.301 1.354.941 2.104-6.055.381-8.489 2.906-8.489 5.619 0 2.376 2.201 4.714 6.827 4.714 5.477 0 8.313-3.142 8.313-6.226 0-2.174-1.048-3.366-3.702-5.421-.78-.627-.932-1.027-.932-1.496 0-.66.375-1.1.524-1.275l.008-.01a5.85 5.85 0 0 1 .606-.534c.101-.081.188-.151.243-.203.892-.78 2.151-1.936 2.151-4.242 0-1.582-.637-2.943-2.087-4.217h1.771l1.33-1.376h-6.558Zm-1.22 1.029c.803 0 1.473.293 2.181.902.785.732 2.04 2.698 2.04 5.13 0 2.626-1.974 3.344-3.042 3.344a2.961 2.961 0 0 1-1.679-.526c-1.178-.79-2.348-2.891-2.348-5.392 0-2.257 1.301-3.458 2.848-3.458Zm2.332 14.663s-.243-.028-.58-.028c-4.544.065-6.199 1.836-6.199 3.894 0 2.485 2.416 4.006 5.577 4.006 2.88 0 4.659-1.554 4.659-3.535 0-1.442-.808-2.25-2.104-3.31-.556-.439-1.353-1.027-1.353-1.027Zm12.63-.692h-6.427l1.178-1.154c.193-.197.283-.388.283-.669V72.403h-2.13L294.131 71h5.48l-1.159 1.14a.88.88 0 0 0-.307.69v19.09c0 .41.295.831.792.89l1.843.227-.979.963Zm.979-7.798c0-4.626 3.858-7.202 7.489-7.202h.002c3.852 0 5.529 1.987 6.124 3.96l-10.294 3.873c.982 3.597 3.792 5.554 6.706 5.554 1.533 0 2.688-.436 4.103-1.1-.75.933-1.777 1.676-2.844 2.133-.995.426-2.057.58-3.347.58-5.171 0-7.939-3.978-7.939-7.798Zm10.174-3.484c0-1.168-1.408-2.66-3.357-2.66-1.288 0-3.899.899-3.899 4.26 0 .802.171 1.544.171 1.544l6.327-2.382c.504-.185.758-.384.758-.762ZM269.907 79c-5.243 0-8.491 3.69-8.491 7.606 0 3.38 2.617 7.394 7.919 7.394 5.101 0 8.23-3.697 8.23-7.682 0-3.712-3.058-7.317-7.658-7.317V79Zm-.87 1.076c3.697 0 5.343 4.638 5.343 7.946 0 4.92-3.832 5.017-4.291 5.017-1.753 0-2.979-1.02-3.896-2.36-.808-1.234-1.597-3.526-1.597-5.766 0-2.23.758-3.32 1.951-4.122.976-.6 1.89-.715 2.489-.715h.001ZM57.081 90.06h8.737l-4.62-7.351-8.479 13.29h-3.858l10.313-15.964A2.445 2.445 0 0 1 61.198 79c.802 0 1.55.376 1.984 1.008L73.536 96h-3.859l-1.82-2.97H59.01l-1.93-2.97Zm40.084 2.97V79.16h-3.274v15.226c0 .417.163.82.475 1.129.313.309.734.484 1.196.484h14.933l1.93-2.97h-15.26Zm-48.413-8.17c0 3.144-2.582 5.683-5.762 5.683v.001h-1.494L48.072 96h-4.755l-9.775-8.426 9.231.013a2.733 2.733 0 0 0 2.745-2.727 2.734 2.734 0 0 0-2.745-2.729H31.938V96h-3.273V79.16H42.99c3.18 0 5.762 2.554 5.762 5.7ZM8.514 96C3.814 96 0 92.237 0 87.587s3.814-8.426 8.514-8.426h9.896c4.701 0 8.513 3.776 8.513 8.426S23.112 96 18.41 96H8.514Zm15.188-8.413c0 3.01-2.467 5.443-5.512 5.443H8.733c-3.044 0-5.511-2.433-5.511-5.443s2.467-5.456 5.511-5.456h9.457c3.045 0 5.512 2.446 5.512 5.456ZM80.37 96c-4.701 0-8.52-3.763-8.52-8.413s3.819-8.426 8.52-8.426h11.754l-1.916 2.97h-9.62c-3.044 0-5.517 2.446-5.517 5.456 0 3.01 2.473 5.443 5.516 5.443h11.808L90.466 96H80.371Zm34.744-6.935c.652 2.299 2.786 3.965 5.299 3.965h11.808L130.293 96h-10.096c-4.702 0-8.52-3.763-8.52-8.413s3.818-8.426 8.52-8.426h11.767l-1.943 2.97h-9.607c-2.513 0-4.647 1.68-5.299 3.965h15.925l-1.929 2.97h-13.996ZM417.398 75v3.501l.695-.043c8.939-.304 14.778 7.321 14.778 7.321s-6.693 8.131-13.662 8.131c-.609 0-1.203-.057-1.797-.159v2.17c.493.058 1 .102 1.493.102 6.49 0 11.184-3.313 15.734-7.22.34.274 1.155.722 2.005 1.19 1.035.569 2.122 1.166 2.471 1.516-4.317 3.617-14.386 6.525-20.094 6.525-.551 0-1.072-.029-1.594-.087V101h24.658V75h-24.687Zm0 7.755v-2.343h.014v-.002c.227-.014.454-.028.681-.028 6.433-.202 10.649 5.527 10.649 5.527s-4.549 6.309-9.432 6.309a5.993 5.993 0 0 1-1.898-.304v-7.119c2.36.286 2.948 1.278 4.254 3.482l.252.425 3.347-2.807s-2.449-3.198-6.563-3.198a9.83 9.83 0 0 0-1.304.058Zm0 0v2.026h-.014c-2.507-.304-4.477 2.04-4.477 2.04s1.115 3.95 4.491 5.093v1.852c-5.998-1.071-7.664-7.307-7.664-7.307s2.883-3.183 7.664-3.704Zm.014-2.345-.014.001v.001c-7.104.556-10.649 5.787-10.649 5.787s2.71 8.739 10.649 9.722v2.026c-10.823-1.013-14.676-12.154-14.676-12.154s6.809-6.655 14.69-7.292v1.91Zm31.739-.41v16.986h4.897V83.797l3.818.014c1.254 0 2.128.302 2.726.935.772.806 1.078 2.114 1.078 4.488v7.752h4.752v-9.378c0-6.702-4.329-7.608-8.556-7.608h-8.715Zm38.185.029V97h4.853V80.029h-4.853ZM495.163 97V80.029h6.806c3.877 0 6.471.46 8.249 2.833 1.006 1.323 1.574 3.452 1.574 5.84 0 2.603-.67 4.99-1.72 6.069C508.6 96.31 507.23 97 503.033 97h-7.87Zm4.809-13.29h2.084c3.032 0 4.985 1.338 4.985 4.819 0 3.48-1.953 4.832-4.985 4.832h-2.084v-9.65Zm-23.683 9.766 4.051-13.447h4.956L479.699 97h-6.996l-5.538-16.971h5.247l3.877 13.447ZM514.066 97h4.853V80.029h-4.853V97Zm6.835-.014 6.778-16.957h6.485L541 96.97h-5.203l-1.021-2.991h-8.016l-1.078 3.006h-4.781Zm9.926-13.865 2.944 7.94h-5.976l3.032-7.94Z"
        clip-rule="evenodd" />
</svg>